{
  "accessors": [
    {
      "bufferView": 2,
      "componentType": 5126,
      "count": 1248,
      "max": [
        0.004213328938931227,
        0.7955640554428101,
        0.701176643371582
      ],
      "min": [
        -0.7383890151977539,
        -0.7011771202087402,
        -0.7766336798667908
      ],
      "type": "VEC3"
    },
    {
      "bufferView": 2,
      "byteOffset": 14976,
      "componentType": 5126,
      "count": 1248,
      "max": [
        1.0,
        1.0,
        1.0
      ],
      "min": [
        -1.0,
        -1.0,
        -1.0
      ],
      "type": "VEC3"
    },
    {
      "bufferView": 1,
      "componentType": 5126,
      "count": 1248,
      "max": [
        0.875,
        1.0
      ],
      "min": [
        0.0,
        0.0
      ],
      "type": "VEC2"
    },
    {
      "bufferView": 0,
      "componentType": 5125,
      "count": 2340,
      "type": "SCALAR"
    },
    {
      "bufferView": 2,
      "byteOffset": 29952,
      "componentType": 5126,
      "count": 592,
      "max": [
        0.004213328938931227,
        0.7011767625808716,
        0.701176643371582
      ],
      "min": [
        -0.34868404269218445,
        -0.7011771202087402,
        -0.7011772394180298
      ],
      "type": "VEC3"
    },
    {
      "bufferView": 2,
      "byteOffset": 37056,
      "componentType": 5126,
      "count": 592,
      "max": [
        1.0,
        1.0,
        0.9761468768119812
      ],
      "min": [
        -1.0,
        -1.0,
        -0.9761468768119812
      ],
      "type": "VEC3"
    },
    {
      "bufferView": 1,
      "byteOffset": 9984,
      "componentType": 5126,
      "count": 592,
      "max": [
        1.0,
        1.0000001192092896
      ],
      "min": [
        0.0,
        0.0
      ],
      "type": "VEC2"
    },
    {
      "bufferView": 0,
      "byteOffset": 9360,
      "componentType": 5125,
      "count": 1626,
      "type": "SCALAR"
    },
    {
      "bufferView": 2,
      "byteOffset": 44160,
      "componentType": 5126,
      "count": 2432,
      "max": [
        -0.31226828694343567,
        0.7955640554428101,
        0.7868834733963013
      ],
      "min": [
        -0.39126962423324585,
        -0.804840624332428,
        -0.7766336798667908
      ],
      "type": "VEC3"
    },
    {
      "bufferView": 2,
      "byteOffset": 73344,
      "componentType": 5126,
      "count": 2432,
      "max": [
        1.0,
        1.0,
        1.0
      ],
      "min": [
        -1.0,
        -1.0,
        -1.0
      ],
      "type": "VEC3"
    },
    {
      "bufferView": 1,
      "byteOffset": 14720,
      "componentType": 5126,
      "count": 2432,
      "max": [
        0.8750000596046448,
        1.0
      ],
      "min": [
        0.0,
        0.0
      ],
      "type": "VEC2"
    },
    {
      "bufferView": 0,
      "byteOffset": 15864,
      "componentType": 5125,
      "count": 4188,
      "type": "SCALAR"
    },
    {
      "bufferView": 2,
      "byteOffset": 102528,
      "componentType": 5126,
      "count": 13552,
      "max": [
        -0.29567277431488037,
        0.5949957370758057,
        0.5965542197227478
      ],
      "min": [
        -0.32224494218826294,
        -0.5978614091873169,
        -0.5946694016456604
      ],
      "type": "VEC3"
    },
    {
      "bufferView": 2,
      "byteOffset": 265152,
      "componentType": 5126,
      "count": 13552,
      "max": [
        1.0,
        0.9992549419403076,
        0.9992550015449524
      ],
      "min": [
        -1.0,
        -0.999255359172821,
        -0.9992554187774658
      ],
      "type": "VEC3"
    },
    {
      "bufferView": 1,
      "byteOffset": 34176,
      "componentType": 5126,
      "count": 13552,
      "max": [
        0.0,
        0.0
      ],
      "min": [
        0.0,
        0.0
      ],
      "type": "VEC2"
    },
    {
      "bufferView": 0,
      "byteOffset": 32616,
      "componentType": 5125,
      "count": 21132,
      "type": "SCALAR"
    },
    {
      "bufferView": 2,
      "byteOffset": 427776,
      "componentType": 5126,
      "count": 55596,
      "max": [
        0.02545757219195366,
        0.8424398899078369,
        0.8515205979347229
      ],
      "min": [
        -0.7697002291679382,
        -0.8631343245506287,
        -0.8517528772354126
      ],
      "type": "VEC3"
    },
    {
      "bufferView": 2,
      "byteOffset": 1094928,
      "componentType": 5126,
      "count": 55596,
      "max": [
        0.9999985694885254,
        0.9999825954437256,
        0.9999966621398926
      ],
      "min": [
        -0.9999985694885254,
        -0.9999970197677612,
        -0.9999966621398926
      ],
      "type": "VEC3"
    },
    {
      "bufferView": 1,
      "byteOffset": 142592,
      "componentType": 5126,
      "count": 55596,
      "max": [
        0.9853488206863403,
        0.9807999730110168
      ],
      "min": [
        0.010900000110268593,
        0.009600000455975533
      ],
      "type": "VEC2"
    },
    {
      "bufferView": 0,
      "byteOffset": 117144,
      "componentType": 5125,
      "count": 135216,
      "type": "SCALAR"
    },
    {
      "bufferView": 2,
      "byteOffset": 1762080,
      "componentType": 5126,
      "count": 3792,
      "max": [
        -0.5263077616691589,
        0.525803804397583,
        0.531810998916626
      ],
      "min": [
        -0.5572574138641357,
        -0.5388622283935547,
        -0.5314674377441406
      ],
      "type": "VEC3"
    },
    {
      "bufferView": 2,
      "byteOffset": 1807584,
      "componentType": 5126,
      "count": 3792,
      "max": [
        0.9999575614929199,
        0.9998843669891357,
        0.9999635219573975
      ],
      "min": [
        -0.9999505281448364,
        -0.9998843669891357,
        -0.9998717308044434
      ],
      "type": "VEC3"
    },
    {
      "bufferView": 1,
      "byteOffset": 587360,
      "componentType": 5126,
      "count": 3792,
      "max": [
        0.9955000281333923,
        0.9944999814033508
      ],
      "min": [
        0.0044999998062849045,
        0.005499999970197678
      ],
      "type": "VEC2"
    },
    {
      "bufferView": 0,
      "byteOffset": 658008,
      "componentType": 5125,
      "count": 9582,
      "type": "SCALAR"
    },
    {
      "bufferView": 2,
      "byteOffset": 1853088,
      "componentType": 5126,
      "count": 9680,
      "max": [
        -0.4722614884376526,
        0.33017298579216003,
        0.3362169861793518
      ],
      "min": [
        -0.5664750933647156,
        -0.33807727694511414,
        -0.331459641456604
      ],
      "type": "VEC3"
    },
    {
      "bufferView": 2,
      "byteOffset": 1969248,
      "componentType": 5126,
      "count": 9680,
      "max": [
        0.9999953508377075,
        0.9999492168426514,
        0.9999996423721313
      ],
      "min": [
        -0.9999951124191284,
        -0.9999445676803589,
        -0.9999980926513672
      ],
      "type": "VEC3"
    },
    {
      "bufferView": 1,
      "byteOffset": 617696,
      "componentType": 5126,
      "count": 9680,
      "max": [
        1.0299999713897705,
        1.0
      ],
      "min": [
        0.0,
        0.0
      ],
      "type": "VEC2"
    },
    {
      "bufferView": 0,
      "byteOffset": 696336,
      "componentType": 5125,
      "count": 47250,
      "type": "SCALAR"
    },
    {
      "bufferView": 2,
      "byteOffset": 2085408,
      "componentType": 5126,
      "count": 8540,
      "max": [
        -0.44127634167671204,
        0.4762970805168152,
        0.5853963494300842
      ],
      "min": [
        -0.6055768728256226,
        -0.4465293288230896,
        0.28073590993881226
      ],
      "type": "VEC3"
    },
    {
      "bufferView": 2,
      "byteOffset": 2187888,
      "componentType": 5126,
      "count": 8540,
      "max": [
        0.999983012676239,
        0.9986512064933777,
        0.9998084902763367
      ],
      "min": [
        -0.9999912977218628,
        -0.9995108842849731,
        -0.9999971985816956
      ],
      "type": "VEC3"
    },
    {
      "bufferView": 1,
      "byteOffset": 695136,
      "componentType": 5126,
      "count": 8540,
      "max": [
        0.9228000044822693,
        0.8773999810218811
      ],
      "min": [
        0.07720000296831131,
        0.1225999966263771
      ],
      "type": "VEC2"
    },
    {
      "bufferView": 0,
      "byteOffset": 885336,
      "componentType": 5125,
      "count": 8562,
      "type": "SCALAR"
    },
    {
      "bufferView": 2,
      "byteOffset": 2290368,
      "componentType": 5126,
      "count": 256,
      "max": [
        0.004213328938931227,
        0.7011767625808716,
        0.701176643371582
      ],
      "min": [
        -0.7383890151977539,
        -0.7011771202087402,
        -0.7011772394180298
      ],
      "type": "VEC3"
    },
    {
      "bufferView": 2,
      "byteOffset": 2293440,
      "componentType": 5126,
      "count": 256,
      "max": [
        1.0,
        1.0,
        1.0
      ],
      "min": [
        0.0,
        -1.0,
        -1.0
      ],
      "type": "VEC3"
    },
    {
      "bufferView": 1,
      "byteOffset": 763456,
      "componentType": 5126,
      "count": 256,
      "max": [
        0.0,
        0.0
      ],
      "min": [
        0.0,
        0.0
      ],
      "type": "VEC2"
    },
    {
      "bufferView": 0,
      "byteOffset": 919584,
      "componentType": 5125,
      "count": 768,
      "type": "SCALAR"
    },
    {
      "bufferView": 2,
      "byteOffset": 2296512,
      "componentType": 5126,
      "count": 64,
      "max": [
        0.004213328938931227,
        0.7011767625808716,
        0.701176643371582
      ],
      "min": [
        0.004213203676044941,
        -0.7011771202087402,
        -0.7011772394180298
      ],
      "type": "VEC3"
    },
    {
      "bufferView": 2,
      "byteOffset": 2297280,
      "componentType": 5126,
      "count": 64,
      "max": [
        1.0,
        0.0,
        -0.0
      ],
      "min": [
        1.0,
        0.0,
        -0.0
      ],
      "type": "VEC3"
    },
    {
      "bufferView": 1,
      "byteOffset": 765504,
      "componentType": 5126,
      "count": 64,
      "max": [
        0.0,
        0.0
      ],
      "min": [
        0.0,
        0.0
      ],
      "type": "VEC2"
    },
    {
      "bufferView": 0,
      "byteOffset": 922656,
      "componentType": 5125,
      "count": 192,
      "type": "SCALAR"
    },
    {
      "bufferView": 2,
      "byteOffset": 2298048,
      "componentType": 5126,
      "count": 2284,
      "max": [
        0.07343664765357971,
        0.6493346691131592,
        0.6283285617828369
      ],
      "min": [
        -0.06436042487621307,
        -0.649284303188324,
        -0.6283285617828369
      ],
      "type": "VEC3"
    },
    {
      "bufferView": 2,
      "byteOffset": 2325456,
      "componentType": 5126,
      "count": 2284,
      "max": [
        1.0,
        1.0,
        1.0
      ],
      "min": [
        -1.0,
        -1.0,
        -1.0
      ],
      "type": "VEC3"
    },
    {
      "bufferView": 1,
      "byteOffset": 766016,
      "componentType": 5126,
      "count": 2284,
      "max": [
        0.8416604995727539,
        0.7187443375587463
      ],
      "min": [
        0.15833956003189087,
        0.11145135760307312
      ],
      "type": "VEC2"
    },
    {
      "bufferView": 0,
      "byteOffset": 923424,
      "componentType": 5125,
      "count": 7266,
      "type": "SCALAR"
    },
    {
      "bufferView": 2,
      "byteOffset": 2352864,
      "componentType": 5126,
      "count": 14016,
      "max": [
        -0.01248133834451437,
        0.6310439705848694,
        0.6610292792320251
      ],
      "min": [
        -0.041745103895664215,
        -0.6340765953063965,
        -0.6591660976409912
      ],
      "type": "VEC3"
    },
    {
      "bufferView": 2,
      "byteOffset": 2521056,
      "componentType": 5126,
      "count": 14016,
      "max": [
        1.0,
        0.9971098303794861,
        0.9971120357513428
      ],
      "min": [
        -1.0,
        -0.9971098303794861,
        -0.997107744216919
      ],
      "type": "VEC3"
    },
    {
      "bufferView": 1,
      "byteOffset": 784288,
      "componentType": 5126,
      "count": 14016,
      "max": [
        0.0,
        0.0
      ],
      "min": [
        0.0,
        0.0
      ],
      "type": "VEC2"
    },
    {
      "bufferView": 0,
      "byteOffset": 952488,
      "componentType": 5125,
      "count": 21132,
      "type": "SCALAR"
    },
    {
      "bufferView": 2,
      "byteOffset": 2689248,
      "componentType": 5126,
      "count": 55596,
      "max": [
        0.02545757219195366,
        0.8424398899078369,
        0.8515205979347229
      ],
      "min": [
        -0.7697002291679382,
        -0.8631343245506287,
        -0.8517528772354126
      ],
      "type": "VEC3"
    },
    {
      "bufferView": 2,
      "byteOffset": 3356400,
      "componentType": 5126,
      "count": 55596,
      "max": [
        0.9999985694885254,
        0.9999825954437256,
        0.9999966621398926
      ],
      "min": [
        -0.9999985694885254,
        -0.9999970197677612,
        -0.9999966621398926
      ],
      "type": "VEC3"
    },
    {
      "bufferView": 1,
      "byteOffset": 896416,
      "componentType": 5126,
      "count": 55596,
      "max": [
        0.9853488206863403,
        0.9807999730110168
      ],
      "min": [
        0.010900000110268593,
        0.009600000455975533
      ],
      "type": "VEC2"
    },
    {
      "bufferView": 0,
      "byteOffset": 1037016,
      "componentType": 5125,
      "count": 135216,
      "type": "SCALAR"
    },
    {
      "bufferView": 2,
      "byteOffset": 4023552,
      "componentType": 5126,
      "count": 3791,
      "max": [
        -0.25703245401382446,
        0.525803804397583,
        0.531810998916626
      ],
      "min": [
        -0.28798210620880127,
        -0.5388622283935547,
        -0.5314674377441406
      ],
      "type": "VEC3"
    },
    {
      "bufferView": 2,
      "byteOffset": 4069044,
      "componentType": 5126,
      "count": 3791,
      "max": [
        0.9999575614929199,
        0.9998843669891357,
        0.9999632835388184
      ],
      "min": [
        -0.9999672174453735,
        -0.9998843669891357,
        -0.9998717308044434
      ],
      "type": "VEC3"
    },
    {
      "bufferView": 1,
      "byteOffset": 1341184,
      "componentType": 5126,
      "count": 3791,
      "max": [
        0.9955000281333923,
        0.9944999814033508
      ],
      "min": [
        0.0044999998062849045,
        0.005499999970197678
      ],
      "type": "VEC2"
    },
    {
      "bufferView": 0,
      "byteOffset": 1577880,
      "componentType": 5125,
      "count": 9582,
      "type": "SCALAR"
    },
    {
      "bufferView": 2,
      "byteOffset": 4114536,
      "componentType": 5126,
      "count": 9678,
      "max": [
        -0.2029862105846405,
        0.33017298579216003,
        0.3362169861793518
      ],
      "min": [
        -0.2971997857093811,
        -0.33807727694511414,
        -0.331459641456604
      ],
      "type": "VEC3"
    },
    {
      "bufferView": 2,
      "byteOffset": 4230672,
      "componentType": 5126,
      "count": 9678,
      "max": [
        0.9999953508377075,
        0.9999492168426514,
        0.9999995231628418
      ],
      "min": [
        -0.9999949932098389,
        -0.9999445676803589,
        -0.9999980926513672
      ],
      "type": "VEC3"
    },
    {
      "bufferView": 1,
      "byteOffset": 1371512,
      "componentType": 5126,
      "count": 9678,
      "max": [
        1.0299999713897705,
        1.0
      ],
      "min": [
        0.0,
        0.0
      ],
      "type": "VEC2"
    },
    {
      "bufferView": 0,
      "byteOffset": 1616208,
      "componentType": 5125,
      "count": 47250,
      "type": "SCALAR"
    },
    {
      "bufferView": 2,
      "byteOffset": 4346808,
      "componentType": 5126,
      "count": 8536,
      "max": [
        -0.17200104892253876,
        0.4762970805168152,
        0.5853963494300842
      ],
      "min": [
        -0.3363015949726105,
        -0.4465293288230896,
        0.28073590993881226
      ],
      "type": "VEC3"
    },
    {
      "bufferView": 2,
      "byteOffset": 4449240,
      "componentType": 5126,
      "count": 8536,
      "max": [
        0.999983012676239,
        0.9986512064933777,
        0.9998084902763367
      ],
      "min": [
        -0.9999912977218628,
        -0.9995108842849731,
        -0.9999971985816956
      ],
      "type": "VEC3"
    },
    {
      "bufferView": 1,
      "byteOffset": 1448936,
      "componentType": 5126,
      "count": 8536,
      "max": [
        0.9228000044822693,
        0.8773999810218811
      ],
      "min": [
        0.07720000296831131,
        0.1225999966263771
      ],
      "type": "VEC2"
    },
    {
      "bufferView": 0,
      "byteOffset": 1805208,
      "componentType": 5125,
      "count": 8556,
      "type": "SCALAR"
    },
    {
      "bufferView": 2,
      "byteOffset": 4551672,
      "componentType": 5126,
      "count": 19152,
      "max": [
        0.32672345638275146,
        0.02511453628540039,
        0.31798386573791504
      ],
      "min": [
        -0.31317293643951416,
        -0.06260156631469727,
        -0.32189399003982544
      ],
      "type": "VEC3"
    },
    {
      "bufferView": 2,
      "byteOffset": 4781496,
      "componentType": 5126,
      "count": 19152,
      "max": [
        0.99930739402771,
        0.9999856352806091,
        0.9961662292480469
      ],
      "min": [
        -0.9993098974227905,
        -0.9968479871749878,
        -0.9961672425270081
      ],
      "type": "VEC3"
    },
    {
      "bufferView": 1,
      "byteOffset": 1517224,
      "componentType": 5126,
      "count": 19152,
      "max": [
        0.9955000281333923,
        0.9944999814033508
      ],
      "min": [
        0.0044999998062849045,
        0.005499999970197678
      ],
      "type": "VEC2"
    },
    {
      "bufferView": 0,
      "byteOffset": 1839432,
      "componentType": 5125,
      "count": 19164,
      "type": "SCALAR"
    },
    {
      "bufferView": 2,
      "byteOffset": 5011320,
      "componentType": 5126,
      "count": 55032,
      "max": [
        0.2071770429611206,
        0.0711522102355957,
        0.19596552848815918
      ],
      "min": [
        -0.19471275806427002,
        -0.04140138626098633,
        -0.20359307527542114
      ],
      "type": "VEC3"
    },
    {
      "bufferView": 2,
      "byteOffset": 5671704,
      "componentType": 5126,
      "count": 55032,
      "max": [
        0.9999135136604309,
        0.9991744756698608,
        0.9999545216560364
      ],
      "min": [
        -0.999924898147583,
        -0.9983636140823364,
        -0.9999613761901855
      ],
      "type": "VEC3"
    },
    {
      "bufferView": 1,
      "byteOffset": 1670440,
      "componentType": 5126,
      "count": 55032,
      "max": [
        1.041700005531311,
        1.0511000156402588
      ],
      "min": [
        0.0,
        0.0
      ],
      "type": "VEC2"
    },
    {
      "bufferView": 0,
      "byteOffset": 1916088,
      "componentType": 5125,
      "count": 72690,
      "type": "SCALAR"
    },
    {
      "bufferView": 2,
      "byteOffset": 6332088,
      "componentType": 5126,
      "count": 8524,
      "max": [
        -0.057510972023010254,
        0.06513071060180664,
        0.16466832160949707
      ],
      "min": [
        -0.3622685670852661,
        -0.07165002822875977,
        -0.3449055552482605
      ],
      "type": "VEC3"
    },
    {
      "bufferView": 2,
      "byteOffset": 6434376,
      "componentType": 5126,
      "count": 8524,
      "max": [
        0.999311089515686,
        0.9993888139724731,
        0.9960777759552002
      ],
      "min": [
        -0.9996532797813416,
        -0.9988498687744141,
        -0.9959993362426758
      ],
      "type": "VEC3"
    },
    {
      "bufferView": 1,
      "byteOffset": 2110696,
      "componentType": 5126,
      "count": 8524,
      "max": [
        0.9228000044822693,
        0.8773999810218811
      ],
      "min": [
        0.07720000296831131,
        0.1225999966263771
      ],
      "type": "VEC2"
    },
    {
      "bufferView": 0,
      "byteOffset": 2206848,
      "componentType": 5125,
      "count": 8532,
      "type": "SCALAR"
    },
    {
      "bufferView": 2,
      "byteOffset": 6536664,
      "componentType": 5126,
      "count": 24765,
      "max": [
        0.49090468883514404,
        0.2121129035949707,
        0.48811984062194824
      ],
      "min": [
        -0.47206175327301025,
        -0.4100050926208496,
        -0.4985368847846985
      ],
      "type": "VEC3"
    },
    {
      "bufferView": 2,
      "byteOffset": 6833844,
      "componentType": 5126,
      "count": 24765,
      "max": [
        0.9997074604034424,
        0.9999996423721313,
        0.9997714757919312
      ],
      "min": [
        -0.9999641180038452,
        -0.9957391619682312,
        -0.9985399842262268
      ],
      "type": "VEC3"
    },
    {
      "bufferView": 1,
      "byteOffset": 2178888,
      "componentType": 5126,
      "count": 24765,
      "max": [
        1.0,
        1.0
      ],
      "min": [
        0.0,
        0.0
      ],
      "type": "VEC2"
    },
    {
      "bufferView": 0,
      "byteOffset": 2240976,
      "componentType": 5125,
      "count": 141360,
      "type": "SCALAR"
    },
    {
      "bufferView": 2,
      "byteOffset": 7131024,
      "componentType": 5126,
      "count": 65532,
      "max": [
        0.5990923643112183,
        0.22097063064575195,
        0.5918922424316406
      ],
      "min": [
        -0.5807067155838013,
        -0.37900209426879883,
        -0.5964245200157166
      ],
      "type": "VEC3"
    },
    {
      "bufferView": 2,
      "byteOffset": 7917408,
      "componentType": 5126,
      "count": 65532,
      "max": [
        0.9999504089355469,
        0.9991440773010254,
        0.9998766779899597
      ],
      "min": [
        -0.99995356798172,
        -0.9972120523452759,
        -0.9999905228614807
      ],
      "type": "VEC3"
    },
    {
      "bufferView": 1,
      "byteOffset": 2377008,
      "componentType": 5126,
      "count": 65532,
      "max": [
        0.9821000099182129,
        0.9804999828338623
      ],
      "min": [
        0.010900000110268593,
        0.009600000455975533
      ],
      "type": "VEC2"
    },
    {
      "bufferView": 0,
      "byteOffset": 2806416,
      "componentType": 5125,
      "count": 65532,
      "type": "SCALAR"
    },
    {
      "bufferView": 2,
      "byteOffset": 8703792,
      "componentType": 5126,
      "count": 65532,
      "max": [
        0.5970567464828491,
        0.21881532669067383,
        0.5870144367218018
      ],
      "min": [
        -0.5787817239761353,
        -0.41167116165161133,
        -0.6013469099998474
      ],
      "type": "VEC3"
    },
    {
      "bufferView": 2,
      "byteOffset": 9490176,
      "componentType": 5126,
      "count": 65532,
      "max": [
        0.9999924898147583,
        0.9979730844497681,
        0.999699592590332
      ],
      "min": [
        -0.9999927282333374,
        -0.9999169707298279,
        -0.999752938747406
      ],
      "type": "VEC3"
    },
    {
      "bufferView": 1,
      "byteOffset": 2901264,
      "componentType": 5126,
      "count": 65532,
      "max": [
        0.9821000099182129,
        0.9807999730110168
      ],
      "min": [
        0.01119999960064888,
        0.009700000286102295
      ],
      "type": "VEC2"
    },
    {
      "bufferView": 0,
      "byteOffset": 3068544,
      "componentType": 5125,
      "count": 65532,
      "type": "SCALAR"
    },
    {
      "bufferView": 2,
      "byteOffset": 10276560,
      "componentType": 5126,
      "count": 4152,
      "max": [
        0.5641344785690308,
        0.2179560661315918,
        -0.16959983110427856
      ],
      "min": [
        -0.01169121265411377,
        -0.05653238296508789,
        -0.5763691067695618
      ],
      "type": "VEC3"
    },
    {
      "bufferView": 2,
      "byteOffset": 10326384,
      "componentType": 5126,
      "count": 4152,
      "max": [
        0.9951028823852539,
        0.9968647360801697,
        0.8981626629829407
      ],
      "min": [
        -0.9958447813987732,
        -0.9978622794151306,
        -0.9962436556816101
      ],
      "type": "VEC3"
    },
    {
      "bufferView": 1,
      "byteOffset": 3425520,
      "componentType": 5126,
      "count": 4152,
      "max": [
        0.2459000051021576,
        0.9070000052452087
      ],
      "min": [
        0.010999999940395355,
        0.3693000078201294
      ],
      "type": "VEC2"
    },
    {
      "bufferView": 0,
      "byteOffset": 3330672,
      "componentType": 5125,
      "count": 4152,
      "type": "SCALAR"
    },
    {
      "bufferView": 2,
      "byteOffset": 10376208,
      "componentType": 5126,
      "count": 55236,
      "max": [
        12.278221130371094,
        31.92174530029297,
        30.377037048339844
      ],
      "min": [
        -17.11217498779297,
        -32.23554992675781,
        -33.780067443847656
      ],
      "type": "VEC3"
    },
    {
      "bufferView": 2,
      "byteOffset": 11039040,
      "componentType": 5126,
      "count": 55236,
      "max": [
        1.0,
        0.9999994039535522,
        0.9999997615814209
      ],
      "min": [
        -1.0,
        -0.9999997615814209,
        -0.9999997615814209
      ],
      "type": "VEC3"
    },
    {
      "bufferView": 1,
      "byteOffset": 3458736,
      "componentType": 5126,
      "count": 55236,
      "max": [
        0.9821000099182129,
        0.9807999730110168
      ],
      "min": [
        0.010900000110268593,
        0.009600000455975533
      ],
      "type": "VEC2"
    },
    {
      "bufferView": 0,
      "byteOffset": 3347280,
      "componentType": 5125,
      "count": 135216,
      "type": "SCALAR"
    },
    {
      "bufferView": 2,
      "byteOffset": 11701872,
      "componentType": 5126,
      "count": 13360,
      "max": [
        2.8752212524414063,
        19.386314392089844,
        18.091758728027344
      ],
      "min": [
        0.5007781982421875,
        -20.173185348510742,
        -21.41077423095703
      ],
      "type": "VEC3"
    },
    {
      "bufferView": 2,
      "byteOffset": 11862192,
      "componentType": 5126,
      "count": 13360,
      "max": [
        0.9999454021453857,
        0.9998379945755005,
        0.9999012351036072
      ],
      "min": [
        -0.9999579787254333,
        -0.9998379945755005,
        -0.9999017715454102
      ],
      "type": "VEC3"
    },
    {
      "bufferView": 1,
      "byteOffset": 3900624,
      "componentType": 5126,
      "count": 13360,
      "max": [
        0.9955000281333923,
        0.9944999814033508
      ],
      "min": [
        0.0044999998062849045,
        0.005499999970197678
      ],
      "type": "VEC2"
    },
    {
      "bufferView": 0,
      "byteOffset": 3888144,
      "componentType": 5125,
      "count": 19164,
      "type": "SCALAR"
    },
    {
      "bufferView": 2,
      "byteOffset": 12022512,
      "componentType": 5126,
      "count": 9674,
      "max": [
        4.86383056640625,
        11.975444793701172,
        10.813835144042969
      ],
      "min": [
        1.3358535766601563,
        -12.795494079589844,
        -14.024681091308594
      ],
      "type": "VEC3"
    },
    {
      "bufferView": 2,
      "byteOffset": 12138600,
      "componentType": 5126,
      "count": 9674,
      "max": [
        0.9999985694885254,
        0.9999940395355225,
        0.9999991655349731
      ],
      "min": [
        -0.9999980926513672,
        -0.9999948740005493,
        -0.9999990463256836
      ],
      "type": "VEC3"
    },
    {
      "bufferView": 1,
      "byteOffset": 4007504,
      "componentType": 5126,
      "count": 9674,
      "max": [
        1.0299999713897705,
        1.0
      ],
      "min": [
        0.0,
        0.0
      ],
      "type": "VEC2"
    },
    {
      "bufferView": 0,
      "byteOffset": 3964800,
      "componentType": 5125,
      "count": 47250,
      "type": "SCALAR"
    },
    {
      "bufferView": 2,
      "byteOffset": 12254688,
      "componentType": 5126,
      "count": 9032,
      "max": [
        12.090690612792969,
        25.32941436767578,
        24.160728454589844
      ],
      "min": [
        -0.125213623046875,
        -26.22936248779297,
        -27.39777374267578
      ],
      "type": "VEC3"
    },
    {
      "bufferView": 2,
      "byteOffset": 12363072,
      "componentType": 5126,
      "count": 9032,
      "max": [
        0.9999802708625793,
        0.9973286390304565,
        0.9999304413795471
      ],
      "min": [
        -0.9999988079071045,
        -0.9999197125434875,
        -0.9999714493751526
      ],
      "type": "VEC3"
    },
    {
      "bufferView": 1,
      "byteOffset": 4084896,
      "componentType": 5126,
      "count": 9032,
      "max": [
        0.9228000044822693,
        0.8773999810218811
      ],
      "min": [
        0.0,
        0.0
      ],
      "type": "VEC2"
    },
    {
      "bufferView": 0,
      "byteOffset": 4153800,
      "componentType": 5125,
      "count": 9702,
      "type": "SCALAR"
    },
    {
      "bufferView": 2,
      "byteOffset": 12471456,
      "componentType": 5126,
      "count": 2912,
      "max": [
        12.091453552246094,
        25.806190490722656,
        24.65642547607422
      ],
      "min": [
        -16.484901428222656,
        -26.747163772583008,
        -27.874549865722656
      ],
      "type": "VEC3"
    },
    {
      "bufferView": 2,
      "byteOffset": 12506400,
      "componentType": 5126,
      "count": 2912,
      "max": [
        0.9999997615814209,
        0.9999039173126221,
        0.9996805191040039
      ],
      "min": [
        -0.9999997615814209,
        -0.9999737739562988,
        -0.9999996423721313
      ],
      "type": "VEC3"
    },
    {
      "bufferView": 1,
      "byteOffset": 4157152,
      "componentType": 5126,
      "count": 2912,
      "max": [
        1.0,
        1.0
      ],
      "min": [
        0.0,
        0.0
      ],
      "type": "VEC2"
    },
    {
      "bufferView": 0,
      "byteOffset": 4192608,
      "componentType": 5125,
      "count": 8748,
      "type": "SCALAR"
    },
    {
      "bufferView": 2,
      "byteOffset": 12541344,
      "componentType": 5126,
      "count": 488,
      "max": [
        12.544387817382813,
        24.852638244628906,
        23.68370819091797
      ],
      "min": [
        7.7756805419921875,
        -25.752031326293945,
        -26.920997619628906
      ],
      "type": "VEC3"
    },
    {
      "bufferView": 2,
      "byteOffset": 12547200,
      "componentType": 5126,
      "count": 488,
      "max": [
        0.9999988079071045,
        0.9835780262947083,
        0.9951637983322144
      ],
      "min": [
        -0.9999988079071045,
        -0.9924163222312927,
        -0.9951636791229248
      ],
      "type": "VEC3"
    },
    {
      "bufferView": 1,
      "byteOffset": 4180448,
      "componentType": 5126,
      "count": 488,
      "max": [
        0.9133223295211792,
        1.4066364765167236
      ],
      "min": [
        -0.10680058598518372,
        -0.48010164499282837
      ],
      "type": "VEC2"
    },
    {
      "bufferView": 0,
      "byteOffset": 4227600,
      "componentType": 5125,
      "count": 924,
      "type": "SCALAR"
    },
    {
      "bufferView": 2,
      "byteOffset": 12553056,
      "componentType": 5126,
      "count": 35684,
      "max": [
        6.343064308166504,
        28.971107482910156,
        29.468528747558594
      ],
      "min": [
        -23.83312225341797,
        -29.904273986816406,
        -29.259971618652344
      ],
      "type": "VEC3"
    },
    {
      "bufferView": 2,
      "byteOffset": 12981264,
      "componentType": 5126,
      "count": 35684,
      "max": [
        0.9999545812606812,
        0.9999967813491821,
        0.9999955892562866
      ],
      "min": [
        -0.9999536275863647,
        -0.9999758005142212,
        -0.9999955892562866
      ],
      "type": "VEC3"
    },
    {
      "bufferView": 1,
      "byteOffset": 4184352,
      "componentType": 5126,
      "count": 35684,
      "max": [
        0.9667518138885498,
        0.9766855239868164
      ],
      "min": [
        0.0019828099757432938,
        0.017350025475025177
      ],
      "type": "VEC2"
    },
    {
      "bufferView": 0,
      "byteOffset": 4231296,
      "componentType": 5125,
      "count": 110088,
      "type": "SCALAR"
    },
    {
      "bufferView": 2,
      "byteOffset": 13409472,
      "componentType": 5126,
      "count": 4665,
      "max": [
        2.4048213958740234,
        17.52391815185547,
        17.780332565307617
      ],
      "min": [
        -5.455628871917725,
        -17.574085235595703,
        -17.279170989990234
      ],
      "type": "VEC3"
    },
    {
      "bufferView": 2,
      "byteOffset": 13465452,
      "componentType": 5126,
      "count": 4665,
      "max": [
        1.0,
        0.9999028444290161,
        0.9993655681610107
      ],
      "min": [
        -1.0,
        -0.9999028444290161,
        -0.9993655681610107
      ],
      "type": "VEC3"
    },
    {
      "bufferView": 1,
      "byteOffset": 4469824,
      "componentType": 5126,
      "count": 4665,
      "max": [
        1.0,
        1.0
      ],
      "min": [
        0.0,
        0.005499999970197678
      ],
      "type": "VEC2"
    },
    {
      "bufferView": 0,
      "byteOffset": 4671648,
      "componentType": 5125,
      "count": 10962,
      "type": "SCALAR"
    },
    {
      "bufferView": 2,
      "byteOffset": 13521432,
      "componentType": 5126,
      "count": 25414,
      "max": [
        5.628286361694336,
        26.433345794677734,
        27.036136627197266
      ],
      "min": [
        -24.064380645751953,
        -27.812957763671875,
        -26.968713760375977
      ],
      "type": "VEC3"
    },
    {
      "bufferView": 2,
      "byteOffset": 13826400,
      "componentType": 5126,
      "count": 25414,
      "max": [
        0.9999998807907104,
        0.9999504089355469,
        0.9999996423721313
      ],
      "min": [
        -0.9999996423721313,
        -0.9999504089355469,
        -0.9999996423721313
      ],
      "type": "VEC3"
    },
    {
      "bufferView": 1,
      "byteOffset": 4507144,
      "componentType": 5126,
      "count": 25414,
      "max": [
        1.000000238418579,
        1.000000238418579
      ],
      "min": [
        0.0,
        -3.4924596548080444e-09
      ],
      "type": "VEC2"
    },
    {
      "bufferView": 0,
      "byteOffset": 4715496,
      "componentType": 5125,
      "count": 129690,
      "type": "SCALAR"
    },
    {
      "bufferView": 2,
      "byteOffset": 14131368,
      "componentType": 5126,
      "count": 5874,
      "max": [
        5.628286361694336,
        23.33440399169922,
        24.389116287231445
      ],
      "min": [
        2.368997573852539,
        -23.377979278564453,
        -24.498579025268555
      ],
      "type": "VEC3"
    },
    {
      "bufferView": 2,
      "byteOffset": 14201856,
      "componentType": 5126,
      "count": 5874,
      "max": [
        0.010010180994868279,
        0.9999499320983887,
        0.9999951124191284
      ],
      "min": [
        -0.010010327212512493,
        -0.9999499320983887,
        -0.9999951124191284
      ],
      "type": "VEC3"
    },
    {
      "bufferView": 1,
      "byteOffset": 4710456,
      "componentType": 5126,
      "count": 5874,
      "max": [
        1.0000001192092896,
        1.0000001192092896
      ],
      "min": [
        -3.725290298461914e-09,
        0.0
      ],
      "type": "VEC2"
    },
    {
      "bufferView": 0,
      "byteOffset": 5234256,
      "componentType": 5125,
      "count": 29952,
      "type": "SCALAR"
    },
    {
      "bufferView": 2,
      "byteOffset": 14272344,
      "componentType": 5126,
      "count": 9679,
      "max": [
        -2.7134199142456055,
        10.949813842773438,
        11.32213020324707
      ],
      "min": [
        -5.654918670654297,
        -11.035486221313477,
        -10.72397232055664
      ],
      "type": "VEC3"
    },
    {
      "bufferView": 2,
      "byteOffset": 14388492,
      "componentType": 5126,
      "count": 9679,
      "max": [
        1.0,
        1.0,
        1.0
      ],
      "min": [
        -1.0,
        -1.0,
        -1.0
      ],
      "type": "VEC3"
    },
    {
      "bufferView": 1,
      "byteOffset": 4757448,
      "componentType": 5126,
      "count": 9679,
      "max": [
        1.0299999713897705,
        1.0
      ],
      "min": [
        0.0,
        0.0
      ],
      "type": "VEC2"
    },
    {
      "bufferView": 0,
      "byteOffset": 5354064,
      "componentType": 5125,
      "count": 47250,
      "type": "SCALAR"
    },
    {
      "bufferView": 2,
      "byteOffset": 14504640,
      "componentType": 5126,
      "count": 4185,
      "max": [
        0.6085433959960938,
        18.345943450927734,
        20.727924346923828
      ],
      "min": [
        -6.726988315582275,
        -13.599681854248047,
        -3.2205352783203125
      ],
      "type": "VEC3"
    },
    {
      "bufferView": 2,
      "byteOffset": 14554860,
      "componentType": 5126,
      "count": 4185,
      "max": [
        1.0,
        0.9963127970695496,
        1.0
      ],
      "min": [
        -1.0,
        -0.999995231628418,
        -1.0
      ],
      "type": "VEC3"
    },
    {
      "bufferView": 1,
      "byteOffset": 4834880,
      "componentType": 5126,
      "count": 4185,
      "max": [
        0.9228000044822693,
        1.0511000156402588
      ],
      "min": [
        0.07720000296831131,
        0.021199999377131462
      ],
      "type": "VEC2"
    },
    {
      "bufferView": 0,
      "byteOffset": 5543064,
      "componentType": 5125,
      "count": 11580,
      "type": "SCALAR"
    },
    {
      "bufferView": 2,
      "byteOffset": 14605080,
      "componentType": 5126,
      "count": 522,
      "max": [
        -2.579622268676758,
        17.634788513183594,
        19.537839889526367
      ],
      "min": [
        -4.877124786376953,
        -12.489423751831055,
        9.917387008666992
      ],
      "type": "VEC3"
    },
    {
      "bufferView": 2,
      "byteOffset": 14611344,
      "componentType": 5126,
      "count": 522,
      "max": [
        1.0,
        0.9998351335525513,
        0.9948720932006836
      ],
      "min": [
        0.0,
        -0.9998596906661987,
        -0.9959830641746521
      ],
      "type": "VEC3"
    },
    {
      "bufferView": 1,
      "byteOffset": 4868360,
      "componentType": 5126,
      "count": 522,
      "max": [
        0.8982999920845032,
        0.6937999725341797
      ],
      "min": [
        0.10170000046491623,
        0.29899999499320984
      ],
      "type": "VEC2"
    },
    {
      "bufferView": 0,
      "byteOffset": 5589384,
      "componentType": 5125,
      "count": 1692,
      "type": "SCALAR"
    },
    {
      "bufferView": 2,
      "byteOffset": 14617608,
      "componentType": 5126,
      "count": 1528,
      "max": [
        -1.710132122039795,
        17.434730529785156,
        19.32550811767578
      ],
      "min": [
        -3.302821636199951,
        -12.277960777282715,
        8.592442512512207
      ],
      "type": "VEC3"
    },
    {
      "bufferView": 2,
      "byteOffset": 14635944,
      "componentType": 5126,
      "count": 1528,
      "max": [
        1.0,
        0.9999581575393677,
        0.9970381855964661
      ],
      "min": [
        -0.9953681230545044,
        -0.9997273683547974,
        -0.9965359568595886
      ],
      "type": "VEC3"
    },
    {
      "bufferView": 1,
      "byteOffset": 4872536,
      "componentType": 5126,
      "count": 1528,
      "max": [
        1.0,
        1.0
      ],
      "min": [
        0.0,
        0.009999945759773254
      ],
      "type": "VEC2"
    },
    {
      "bufferView": 0,
      "byteOffset": 5596152,
      "componentType": 5125,
      "count": 2460,
      "type": "SCALAR"
    },
    {
      "bufferView": 2,
      "byteOffset": 14654280,
      "componentType": 5126,
      "count": 704,
      "max": [
        6.343064308166504,
        26.084854125976563,
        26.800121307373047
      ],
      "min": [
        5.411628723144531,
        -27.30996322631836,
        -26.56407356262207
      ],
      "type": "VEC3"
    },
    {
      "bufferView": 2,
      "byteOffset": 14662728,
      "componentType": 5126,
      "count": 704,
      "max": [
        0.8284592032432556,
        0.7168097496032715,
        0.7240296006202698
      ],
      "min": [
        0.6817697882652283,
        -0.7305383086204529,
        -0.7229939699172974
      ],
      "type": "VEC3"
    },
    {
      "bufferView": 1,
      "byteOffset": 4884760,
      "componentType": 5126,
      "count": 704,
      "max": [
        0.8652628660202026,
        0.904873251914978
      ],
      "min": [
        0.07094502449035645,
        0.10856703668832779
      ],
      "type": "VEC2"
    },
    {
      "bufferView": 0,
      "byteOffset": 5605992,
      "componentType": 5125,
      "count": 2112,
      "type": "SCALAR"
    },
    {
      "bufferView": 2,
      "byteOffset": 14671176,
      "componentType": 5126,
      "count": 528,
      "max": [
        0.07629486173391342,
        0.060158174484968185,
        0.05012768879532814
      ],
      "min": [
        0.05912228301167488,
        -0.060158174484968185,
        -0.05012769252061844
      ],
      "type": "VEC3"
    },
    {
      "bufferView": 2,
      "byteOffset": 14677512,
      "componentType": 5126,
      "count": 528,
      "max": [
        1.0,
        1.0,
        0.9761468768119812
      ],
      "min": [
        -1.0,
        -1.0,
        -0.9761468768119812
      ],
      "type": "VEC3"
    },
    {
      "bufferView": 1,
      "byteOffset": 4890392,
      "componentType": 5126,
      "count": 528,
      "max": [
        1.0,
        1.0000001192092896
      ],
      "min": [
        0.0,
        0.0
      ],
      "type": "VEC2"
    },
    {
      "bufferView": 0,
      "byteOffset": 5614440,
      "componentType": 5125,
      "count": 1434,
      "type": "SCALAR"
    },
    {
      "bufferView": 2,
      "byteOffset": 14683848,
      "componentType": 5126,
      "count": 528,
      "max": [
        0.07629486173391342,
        0.060158174484968185,
        0.05012768879532814
      ],
      "min": [
        0.05912228301167488,
        -0.060158174484968185,
        -0.05012769252061844
      ],
      "type": "VEC3"
    },
    {
      "bufferView": 2,
      "byteOffset": 14690184,
      "componentType": 5126,
      "count": 528,
      "max": [
        1.0,
        1.0,
        0.9761468768119812
      ],
      "min": [
        -1.0,
        -1.0,
        -0.9761468768119812
      ],
      "type": "VEC3"
    },
    {
      "bufferView": 1,
      "byteOffset": 4894616,
      "componentType": 5126,
      "count": 528,
      "max": [
        1.0,
        1.0000001192092896
      ],
      "min": [
        0.0,
        0.0
      ],
      "type": "VEC2"
    },
    {
      "bufferView": 0,
      "byteOffset": 5620176,
      "componentType": 5125,
      "count": 1434,
      "type": "SCALAR"
    }
  ],
  "asset": {
    "extras": {
      "author": "SDC PERFORMANCE™️ (https://sketchfab.com/3Duae)",
      "license": "CC-BY-4.0 (http://creativecommons.org/licenses/by/4.0/)",
      "source": "https://sketchfab.com/3d-models/free-5-wheels-sport-for-tuning-car-daa0945e2a6f44d9a417f9e3d8c3cc6e",
      "title": "( FREE ) 5 Wheels Sport for tuning car"
    },
    "generator": "Sketchfab-13.9.0",
    "version": "2.0"
  },
  "bufferViews": [
    {
      "buffer": 0,
      "byteLength": 5625912,
      "name": "floatBufferViews",
      "target": 34963
    },
    {
      "buffer": 0,
      "byteLength": 4898840,
      "byteOffset": 5625912,
      "byteStride": 8,
      "name": "floatBufferViews",
      "target": 34962
    },
    {
      "buffer": 0,
      "byteLength": 14696520,
      "byteOffset": 10524752,
      "byteStride": 12,
      "name": "floatBufferViews",
      "target": 34962
    }
  ],
  "buffers": [
    {
      "byteLength": 25221272,
      "uri": "scene.bin"
    }
  ],
  "materials": [
    {
      "doubleSided": true,
      "name": "material_0",
      "pbrMetallicRoughness": {
        "baseColorFactor": [
          0.0,
          0.0,
          0.0,
          1.0
        ],
        "metallicFactor": 0.0,
        "roughnessFactor": 0.6
      }
    },
    {
      "doubleSided": true,
      "name": "Material.003",
      "pbrMetallicRoughness": {
        "baseColorFactor": [
          0.854979,
          0.854979,
          0.854979,
          1.0
        ],
        "metallicFactor": 0.605714,
        "roughnessFactor": 0.0
      }
    },
    {
      "doubleSided": true,
      "name": "Metal_vert",
      "pbrMetallicRoughness": {
        "baseColorFactor": [
          0.00137216,
          0.195988,
          0.0,
          1.0
        ],
        "metallicFactor": 0.0,
        "roughnessFactor": 0.5
      }
    },
    {
      "doubleSided": true,
      "name": "carbone",
      "pbrMetallicRoughness": {
        "baseColorFactor": [
          0.003817572869280599,
          0.003817572869280599,
          0.003817572869280599,
          1.0
        ],
        "metallicFactor": 0.502857,
        "roughnessFactor": 0.42
      }
    },
    {
      "doubleSided": true,
      "name": "Material.004",
      "pbrMetallicRoughness": {
        "baseColorFactor": [
          0.114935,
          0.114935,
          0.114935,
          1.0
        ],
        "metallicFactor": 0.508571,
        "roughnessFactor": 0.54
      }
    },
    {
      "doubleSided": true,
      "name": "pneu",
      "pbrMetallicRoughness": {
        "baseColorFactor": [
          0.0,
          0.0,
          0.0,
          1.0
        ],
        "metallicFactor": 0.0,
        "roughnessFactor": 0.565335056259219
      }
    },
    {
      "doubleSided": true,
      "name": "plaquette_de_frein",
      "pbrMetallicRoughness": {
        "baseColorFactor": [
          0.201901,
          0.201901,
          0.201901,
          1.0
        ],
        "metallicFactor": 0.8274310931233314,
        "roughnessFactor": 0.23009593934000558
      }
    },
    {
      "doubleSided": true,
      "name": "visse",
      "pbrMetallicRoughness": {
        "baseColorFactor": [
          0.142401,
          0.142401,
          0.142401,
          1.0
        ],
        "metallicFactor": 0.0,
        "roughnessFactor": 0.5
      }
    },
    {
      "doubleSided": true,
      "name": "Material.006",
      "pbrMetallicRoughness": {
        "baseColorFactor": [
          0.071545,
          0.393114,
          0.0,
          1.0
        ],
        "metallicFactor": 0.76,
        "roughnessFactor": 0.557143
      }
    },
    {
      "doubleSided": true,
      "name": "Material",
      "pbrMetallicRoughness": {
        "baseColorFactor": [
          0.128239,
          0.128239,
          0.128239,
          1.0
        ],
        "metallicFactor": 0.605714,
        "roughnessFactor": 0.15979455094881104
      }
    },
    {
      "doubleSided": true,
      "name": "Metal_vert.001",
      "pbrMetallicRoughness": {
        "baseColorFactor": [
          1.0,
          0.39675523072562685,
          0.0,
          1.0
        ],
        "metallicFactor": 0.0,
        "roughnessFactor": 0.5
      }
    },
    {
      "doubleSided": true,
      "name": "carbone.001",
      "pbrMetallicRoughness": {
        "baseColorFactor": [
          0.053573780633981286,
          0.053573780633981286,
          0.053573780633981286,
          1.0
        ],
        "metallicFactor": 0.502857,
        "roughnessFactor": 0.1050729924788258
      }
    },
    {
      "doubleSided": true,
      "name": "Material.012",
      "pbrMetallicRoughness": {
        "baseColorFactor": [
          0.114935,
          0.114935,
          0.114935,
          1.0
        ],
        "metallicFactor": 0.508571,
        "roughnessFactor": 0.54
      }
    },
    {
      "doubleSided": true,
      "name": "pneu.003",
      "pbrMetallicRoughness": {
        "baseColorFactor": [
          0.0,
          0.0,
          0.0,
          1.0
        ],
        "metallicFactor": 0.0,
        "roughnessFactor": 0.5104777462178932
      }
    },
    {
      "doubleSided": true,
      "name": "plaquette_de_frein.001",
      "pbrMetallicRoughness": {
        "baseColorFactor": [
          0.201901,
          0.201901,
          0.201901,
          1.0
        ],
        "metallicFactor": 0.6872401896843876,
        "roughnessFactor": 0.15085760261364606
      }
    },
    {
      "doubleSided": true,
      "name": "visse.001",
      "pbrMetallicRoughness": {
        "baseColorFactor": [
          0.142401,
          0.142401,
          0.142401,
          1.0
        ],
        "metallicFactor": 0.0,
        "roughnessFactor": 0.5
      }
    },
    {
      "doubleSided": true,
      "name": "Material.009",
      "pbrMetallicRoughness": {
        "baseColorFactor": [
          1.0,
          0.3980456015407227,
          0.0,
          1.0
        ],
        "metallicFactor": 0.76,
        "roughnessFactor": 0.557143
      }
    },
    {
      "doubleSided": true,
      "name": "plaquette_de_frein.002",
      "pbrMetallicRoughness": {
        "baseColorFactor": [
          0.47699,
          0.47699,
          0.47699,
          1.0
        ],
        "metallicFactor": 0.8883836598359156,
        "roughnessFactor": 0.1630481159561629
      }
    },
    {
      "doubleSided": true,
      "name": "visse.002",
      "pbrMetallicRoughness": {
        "baseColorFactor": [
          0.142401,
          0.142401,
          0.142401,
          1.0
        ],
        "metallicFactor": 0.8396216064658483,
        "roughnessFactor": 0.5
      }
    },
    {
      "doubleSided": true,
      "name": "Material.016",
      "pbrMetallicRoughness": {
        "baseColorFactor": [
          0.3974109990242194,
          0.0,
          0.7825869999999995,
          1.0
        ],
        "metallicFactor": 0.48000146286160106,
        "roughnessFactor": 0.66
      }
    },
    {
      "doubleSided": true,
      "name": "pneu.004",
      "pbrMetallicRoughness": {
        "baseColorFactor": [
          0.16111610572391852,
          0.11380627304245229,
          0.08763995240679973,
          1.0
        ],
        "metallicFactor": 0.6766092698320049,
        "roughnessFactor": 0.24491697523545472
      }
    },
    {
      "doubleSided": true,
      "name": "pneu.005",
      "pbrMetallicRoughness": {
        "baseColorFactor": [
          0.00807591,
          0.00807591,
          0.00807591,
          1.0
        ],
        "metallicFactor": 0.0,
        "roughnessFactor": 0.49828723287537635
      }
    },
    {
      "doubleSided": true,
      "name": "plaquette_de_frein.003",
      "pbrMetallicRoughness": {
        "baseColorFactor": [
          0.47699,
          0.47699,
          0.47699,
          1.0
        ],
        "metallicFactor": 0.693335446355646,
        "roughnessFactor": 0.236191196011264
      }
    },
    {
      "doubleSided": true,
      "name": "visse.003",
      "pbrMetallicRoughness": {
        "baseColorFactor": [
          0.142401,
          0.142401,
          0.142401,
          1.0
        ],
        "metallicFactor": 0.0,
        "roughnessFactor": 0.5
      }
    },
    {
      "doubleSided": true,
      "name": "Material.018",
      "pbrMetallicRoughness": {
        "baseColorFactor": [
          0.7999999999999999,
          0.022432000000000014,
          0.0,
          1.0
        ],
        "metallicFactor": 0.76,
        "roughnessFactor": 0.494286
      }
    },
    {
      "doubleSided": true,
      "name": "Material.017",
      "pbrMetallicRoughness": {
        "baseColorFactor": [
          0.054969,
          0.054969,
          0.054969,
          1.0
        ],
        "metallicFactor": 0.674286,
        "roughnessFactor": 0.08990503590106179
      }
    },
    {
      "doubleSided": true,
      "name": "Carbonne.002",
      "pbrMetallicRoughness": {
        "baseColorFactor": [
          0.0,
          0.0,
          0.0,
          1.0
        ],
        "metallicFactor": 0.846154,
        "roughnessFactor": 0.564103
      }
    },
    {
      "doubleSided": true,
      "name": "Pneu.001",
      "pbrMetallicRoughness": {
        "baseColorFactor": [
          0.022903998576993965,
          0.022361599090111997,
          0.022361599090111997,
          1.0
        ],
        "metallicFactor": 0.0,
        "roughnessFactor": 0.6262876229718033
      }
    },
    {
      "doubleSided": true,
      "name": "plaquette_de_frein.005",
      "pbrMetallicRoughness": {
        "baseColorFactor": [
          0.17534715041373466,
          0.17534715041373466,
          0.17534715041373466,
          1.0
        ],
        "metallicFactor": 0.6,
        "roughnessFactor": 0.11723333880548918
      }
    },
    {
      "doubleSided": true,
      "name": "Material.025",
      "pbrMetallicRoughness": {
        "baseColorFactor": [
          0.0173877,
          0.0173877,
          0.0173877,
          1.0
        ],
        "metallicFactor": 0.9745377548352577,
        "roughnessFactor": 0.3543600921754252
      }
    },
    {
      "doubleSided": true,
      "name": "Material.024",
      "pbrMetallicRoughness": {
        "baseColorFactor": [
          0.0395735,
          0.571111,
          1.0,
          1.0
        ],
        "metallicFactor": 0.920904,
        "roughnessFactor": 0.251542
      }
    },
    {
      "doubleSided": true,
      "name": "visse.005",
      "pbrMetallicRoughness": {
        "baseColorFactor": [
          0.0732357,
          0.0732357,
          0.0732357,
          1.0
        ],
        "metallicFactor": 0.354286,
        "roughnessFactor": 0.282857
      }
    },
    {
      "doubleSided": true,
      "name": "Material.028",
      "pbrMetallicRoughness": {
        "baseColorFactor": [
          0.04223690000000001,
          0.3853709999999998,
          0.6981919999999996,
          1.0
        ],
        "metallicFactor": 0.4678109495190842,
        "roughnessFactor": 0.4860967195328595
      }
    },
    {
      "doubleSided": true,
      "name": "Material.027",
      "pbrMetallicRoughness": {
        "baseColorFactor": [
          0.334324,
          0.334324,
          0.334324,
          1.0
        ],
        "metallicFactor": 0.348571,
        "roughnessFactor": 0.14
      }
    },
    {
      "doubleSided": true,
      "name": "Material.026",
      "pbrMetallicRoughness": {
        "baseColorFactor": [
          0.0946259,
          0.0946259,
          0.0946259,
          1.0
        ],
        "metallicFactor": 0.588571,
        "roughnessFactor": 0.288571
      }
    },
    {
      "doubleSided": true,
      "name": "Material.029",
      "pbrMetallicRoughness": {
        "baseColorFactor": [
          0.8,
          0.8,
          0.8,
          1.0
        ],
        "metallicFactor": 0.0,
        "roughnessFactor": 0.254286
      }
    }
  ],
  "meshes": [
    {
      "name": "Object_0",
      "primitives": [
        {
          "attributes": {
            "NORMAL": 1,
            "POSITION": 0,
            "TEXCOORD_0": 2
          },
          "indices": 3,
          "material": 1,
          "mode": 4
        }
      ]
    },
    {
      "name": "Object_1",
      "primitives": [
        {
          "attributes": {
            "NORMAL": 5,
            "POSITION": 4,
            "TEXCOORD_0": 6
          },
          "indices": 7,
          "material": 2,
          "mode": 4
        }
      ]
    },
    {
      "name": "Object_2",
      "primitives": [
        {
          "attributes": {
            "NORMAL": 9,
            "POSITION": 8,
            "TEXCOORD_0": 10
          },
          "indices": 11,
          "material": 3,
          "mode": 4
        }
      ]
    },
    {
      "name": "Object_3",
      "primitives": [
        {
          "attributes": {
            "NORMAL": 13,
            "POSITION": 12,
            "TEXCOORD_0": 14
          },
          "indices": 15,
          "material": 4,
          "mode": 4
        }
      ]
    },
    {
      "name": "Object_4",
      "primitives": [
        {
          "attributes": {
            "NORMAL": 17,
            "POSITION": 16,
            "TEXCOORD_0": 18
          },
          "indices": 19,
          "material": 5,
          "mode": 4
        }
      ]
    },
    {
      "name": "Object_5",
      "primitives": [
        {
          "attributes": {
            "NORMAL": 21,
            "POSITION": 20,
            "TEXCOORD_0": 22
          },
          "indices": 23,
          "material": 6,
          "mode": 4
        }
      ]
    },
    {
      "name": "Object_6",
      "primitives": [
        {
          "attributes": {
            "NORMAL": 25,
            "POSITION": 24,
            "TEXCOORD_0": 26
          },
          "indices": 27,
          "material": 7,
          "mode": 4
        }
      ]
    },
    {
      "name": "Object_7",
      "primitives": [
        {
          "attributes": {
            "NORMAL": 29,
            "POSITION": 28,
            "TEXCOORD_0": 30
          },
          "indices": 31,
          "material": 8,
          "mode": 4
        }
      ]
    },
    {
      "name": "Object_8",
      "primitives": [
        {
          "attributes": {
            "NORMAL": 33,
            "POSITION": 32,
            "TEXCOORD_0": 34
          },
          "indices": 35,
          "material": 9,
          "mode": 4
        }
      ]
    },
    {
      "name": "Object_9",
      "primitives": [
        {
          "attributes": {
            "NORMAL": 37,
            "POSITION": 36,
            "TEXCOORD_0": 38
          },
          "indices": 39,
          "material": 10,
          "mode": 4
        }
      ]
    },
    {
      "name": "Object_10",
      "primitives": [
        {
          "attributes": {
            "NORMAL": 41,
            "POSITION": 40,
            "TEXCOORD_0": 42
          },
          "indices": 43,
          "material": 11,
          "mode": 4
        }
      ]
    },
    {
      "name": "Object_11",
      "primitives": [
        {
          "attributes": {
            "NORMAL": 45,
            "POSITION": 44,
            "TEXCOORD_0": 46
          },
          "indices": 47,
          "material": 12,
          "mode": 4
        }
      ]
    },
    {
      "name": "Object_12",
      "primitives": [
        {
          "attributes": {
            "NORMAL": 49,
            "POSITION": 48,
            "TEXCOORD_0": 50
          },
          "indices": 51,
          "material": 13,
          "mode": 4
        }
      ]
    },
    {
      "name": "Object_13",
      "primitives": [
        {
          "attributes": {
            "NORMAL": 53,
            "POSITION": 52,
            "TEXCOORD_0": 54
          },
          "indices": 55,
          "material": 14,
          "mode": 4
        }
      ]
    },
    {
      "name": "Object_14",
      "primitives": [
        {
          "attributes": {
            "NORMAL": 57,
            "POSITION": 56,
            "TEXCOORD_0": 58
          },
          "indices": 59,
          "material": 15,
          "mode": 4
        }
      ]
    },
    {
      "name": "Object_15",
      "primitives": [
        {
          "attributes": {
            "NORMAL": 61,
            "POSITION": 60,
            "TEXCOORD_0": 62
          },
          "indices": 63,
          "material": 16,
          "mode": 4
        }
      ]
    },
    {
      "name": "Object_16",
      "primitives": [
        {
          "attributes": {
            "NORMAL": 65,
            "POSITION": 64,
            "TEXCOORD_0": 66
          },
          "indices": 67,
          "material": 17,
          "mode": 4
        }
      ]
    },
    {
      "name": "Object_17",
      "primitives": [
        {
          "attributes": {
            "NORMAL": 69,
            "POSITION": 68,
            "TEXCOORD_0": 70
          },
          "indices": 71,
          "material": 18,
          "mode": 4
        }
      ]
    },
    {
      "name": "Object_18",
      "primitives": [
        {
          "attributes": {
            "NORMAL": 73,
            "POSITION": 72,
            "TEXCOORD_0": 74
          },
          "indices": 75,
          "material": 19,
          "mode": 4
        }
      ]
    },
    {
      "name": "Object_19",
      "primitives": [
        {
          "attributes": {
            "NORMAL": 77,
            "POSITION": 76,
            "TEXCOORD_0": 78
          },
          "indices": 79,
          "material": 20,
          "mode": 4
        }
      ]
    },
    {
      "name": "Object_20",
      "primitives": [
        {
          "attributes": {
            "NORMAL": 81,
            "POSITION": 80,
            "TEXCOORD_0": 82
          },
          "indices": 83,
          "material": 0,
          "mode": 4
        }
      ]
    },
    {
      "name": "Object_21",
      "primitives": [
        {
          "attributes": {
            "NORMAL": 85,
            "POSITION": 84,
            "TEXCOORD_0": 86
          },
          "indices": 87,
          "material": 0,
          "mode": 4
        }
      ]
    },
    {
      "name": "Object_22",
      "primitives": [
        {
          "attributes": {
            "NORMAL": 89,
            "POSITION": 88,
            "TEXCOORD_0": 90
          },
          "indices": 91,
          "material": 0,
          "mode": 4
        }
      ]
    },
    {
      "name": "Object_23",
      "primitives": [
        {
          "attributes": {
            "NORMAL": 93,
            "POSITION": 92,
            "TEXCOORD_0": 94
          },
          "indices": 95,
          "material": 21,
          "mode": 4
        }
      ]
    },
    {
      "name": "Object_24",
      "primitives": [
        {
          "attributes": {
            "NORMAL": 97,
            "POSITION": 96,
            "TEXCOORD_0": 98
          },
          "indices": 99,
          "material": 22,
          "mode": 4
        }
      ]
    },
    {
      "name": "Object_25",
      "primitives": [
        {
          "attributes": {
            "NORMAL": 101,
            "POSITION": 100,
            "TEXCOORD_0": 102
          },
          "indices": 103,
          "material": 23,
          "mode": 4
        }
      ]
    },
    {
      "name": "Object_26",
      "primitives": [
        {
          "attributes": {
            "NORMAL": 105,
            "POSITION": 104,
            "TEXCOORD_0": 106
          },
          "indices": 107,
          "material": 24,
          "mode": 4
        }
      ]
    },
    {
      "name": "Object_27",
      "primitives": [
        {
          "attributes": {
            "NORMAL": 109,
            "POSITION": 108,
            "TEXCOORD_0": 110
          },
          "indices": 111,
          "material": 25,
          "mode": 4
        }
      ]
    },
    {
      "name": "Object_28",
      "primitives": [
        {
          "attributes": {
            "NORMAL": 113,
            "POSITION": 112,
            "TEXCOORD_0": 114
          },
          "indices": 115,
          "material": 26,
          "mode": 4
        }
      ]
    },
    {
      "name": "Object_29",
      "primitives": [
        {
          "attributes": {
            "NORMAL": 117,
            "POSITION": 116,
            "TEXCOORD_0": 118
          },
          "indices": 119,
          "material": 27,
          "mode": 4
        }
      ]
    },
    {
      "name": "Object_30",
      "primitives": [
        {
          "attributes": {
            "NORMAL": 121,
            "POSITION": 120,
            "TEXCOORD_0": 122
          },
          "indices": 123,
          "material": 28,
          "mode": 4
        }
      ]
    },
    {
      "name": "Object_31",
      "primitives": [
        {
          "attributes": {
            "NORMAL": 125,
            "POSITION": 124,
            "TEXCOORD_0": 126
          },
          "indices": 127,
          "material": 29,
          "mode": 4
        }
      ]
    },
    {
      "name": "Object_32",
      "primitives": [
        {
          "attributes": {
            "NORMAL": 129,
            "POSITION": 128,
            "TEXCOORD_0": 130
          },
          "indices": 131,
          "material": 30,
          "mode": 4
        }
      ]
    },
    {
      "name": "Object_33",
      "primitives": [
        {
          "attributes": {
            "NORMAL": 133,
            "POSITION": 132,
            "TEXCOORD_0": 134
          },
          "indices": 135,
          "material": 31,
          "mode": 4
        }
      ]
    },
    {
      "name": "Object_34",
      "primitives": [
        {
          "attributes": {
            "NORMAL": 137,
            "POSITION": 136,
            "TEXCOORD_0": 138
          },
          "indices": 139,
          "material": 32,
          "mode": 4
        }
      ]
    },
    {
      "name": "Object_35",
      "primitives": [
        {
          "attributes": {
            "NORMAL": 141,
            "POSITION": 140,
            "TEXCOORD_0": 142
          },
          "indices": 143,
          "material": 33,
          "mode": 4
        }
      ]
    },
    {
      "name": "Object_36",
      "primitives": [
        {
          "attributes": {
            "NORMAL": 145,
            "POSITION": 144,
            "TEXCOORD_0": 146
          },
          "indices": 147,
          "material": 34,
          "mode": 4
        }
      ]
    },
    {
      "name": "Object_37",
      "primitives": [
        {
          "attributes": {
            "NORMAL": 149,
            "POSITION": 148,
            "TEXCOORD_0": 150
          },
          "indices": 151,
          "material": 35,
          "mode": 4
        }
      ]
    },
    {
      "name": "Object_38",
      "primitives": [
        {
          "attributes": {
            "NORMAL": 153,
            "POSITION": 152,
            "TEXCOORD_0": 154
          },
          "indices": 155,
          "material": 10,
          "mode": 4
        }
      ]
    },
    {
      "name": "Object_39",
      "primitives": [
        {
          "attributes": {
            "NORMAL": 157,
            "POSITION": 156,
            "TEXCOORD_0": 158
          },
          "indices": 159,
          "material": 19,
          "mode": 4
        }
      ]
    }
  ],
  "nodes": [
    {
      "children": [
        1
      ],
      "matrix": [
        1.0,
        0.0,
        0.0,
        0.0,
        0.0,
        2.220446049250313e-16,
        -1.0,
        0.0,
        0.0,
        1.0,
        2.220446049250313e-16,
        0.0,
        0.0,
        0.0,
        0.0,
        1.0
      ],
      "name": "Sketchfab_model"
    },
    {
      "children": [
        2
      ],
      "name": "root"
    },
    {
      "children": [
        3,
        12,
        21,
        29,
        36,
        46,
        48
      ],
      "matrix": [
        1.0,
        0.0,
        0.0,
        0.0,
        0.0,
        2.220446049250313e-16,
        1.0,
        0.0,
        0.0,
        -1.0,
        2.220446049250313e-16,
        0.0,
        0.0,
        0.0,
        0.0,
        1.0
      ],
      "name": "GLTF_SceneRootNode"
    },
    {
      "children": [
        4,
        5,
        6,
        7,
        8,
        9,
        10,
        11
      ],
      "matrix": [
        2.8372642106575374,
        0.0,
        -2.0128195483293765,
        0.0,
        0.0,
        3.47872257232666,
        0.0,
        0.0,
        2.0128195483293765,
        0.0,
        2.8372642106575374,
        0.0,
        3.170257806777954,
        -0.10096364468336105,
        6.286401271820068,
        1.0
      ],
      "name": "Circle.005_0"
    },
    {
      "mesh": 0,
      "name": "Object_4"
    },
    {
      "mesh": 1,
      "name": "Object_5"
    },
    {
      "mesh": 2,
      "name": "Object_6"
    },
    {
      "mesh": 3,
      "name": "Object_7"
    },
    {
      "mesh": 4,
      "name": "Object_8"
    },
    {
      "mesh": 5,
      "name": "Object_9"
    },
    {
      "mesh": 6,
      "name": "Object_10"
    },
    {
      "mesh": 7,
      "name": "Object_11"
    },
    {
      "children": [
        13,
        14,
        15,
        16,
        17,
        18,
        19,
        20
      ],
      "matrix": [
        2.7263837479595363,
        0.0,
        -1.9947433970411386,
        0.0,
        0.0,
        3.378190279006958,
        0.0,
        0.0,
        1.9947433970411386,
        0.0,
        2.7263837479595363,
        0.0,
        3.0491013526916504,
        -0.1851000189781189,
        0.4038545489311218,
        1.0
      ],
      "name": "Circle.000_1"
    },
    {
      "mesh": 8,
      "name": "Object_13"
    },
    {
      "mesh": 9,
      "name": "Object_14"
    },
    {
      "mesh": 10,
      "name": "Object_15"
    },
    {
      "mesh": 11,
      "name": "Object_16"
    },
    {
      "mesh": 12,
      "name": "Object_17"
    },
    {
      "mesh": 13,
      "name": "Object_18"
    },
    {
      "mesh": 14,
      "name": "Object_19"
    },
    {
      "mesh": 15,
      "name": "Object_20"
    },
    {
      "children": [
        22,
        23,
        24,
        25,
        26,
        27,
        28
      ],
      "matrix": [
        -3.1203304893848065,
        1.8582576514016713,
        -3.5874138012124255,
        0.0,
        3.9645409920975676,
        0.535632538074614,
        -3.1709012403299,
        0.0,
        -0.7778572604479314,
        -4.724307907514729,
        -1.7705818014094012,
        0.0,
        2.362548828125,
        -0.11779092252254486,
        -5.279594421386719,
        1.0
      ],
      "name": "Cube.026_2"
    },
    {
      "mesh": 16,
      "name": "Object_22"
    },
    {
      "mesh": 17,
      "name": "Object_23"
    },
    {
      "mesh": 18,
      "name": "Object_24"
    },
    {
      "mesh": 19,
      "name": "Object_25"
    },
    {
      "mesh": 20,
      "name": "Object_26"
    },
    {
      "mesh": 21,
      "name": "Object_27"
    },
    {
      "mesh": 22,
      "name": "Object_28"
    },
    {
      "children": [
        30,
        31,
        32,
        33,
        34,
        35
      ],
      "matrix": [
        0.07503986455166319,
        0.0,
        -0.05540922089061955,
        0.0,
        0.0,
        0.09327999502420425,
        0.0,
        0.0,
        0.055409251870629124,
        0.0,
        0.07503990650741865,
        0.0,
        2.3423562049865723,
        -0.11779092252254486,
        12.753894805908203,
        1.0
      ],
      "name": "tire04_3"
    },
    {
      "mesh": 23,
      "name": "Object_30"
    },
    {
      "mesh": 24,
      "name": "Object_31"
    },
    {
      "mesh": 25,
      "name": "Object_32"
    },
    {
      "mesh": 26,
      "name": "Object_33"
    },
    {
      "mesh": 27,
      "name": "Object_34"
    },
    {
      "mesh": 28,
      "name": "Object_35"
    },
    {
      "children": [
        37,
        38,
        39,
        40,
        41,
        42,
        43,
        44,
        45
      ],
      "matrix": [
        0.0745680807866437,
        0.0,
        -0.06606712452777537,
        -0.0,
        -0.0,
        -0.0996255874633789,
        0.0,
        -0.0,
        0.06606712946865753,
        0.0,
        0.07456808636327662,
        -0.0,
        2.3262016773223877,
        -0.2187545746564865,
        -12.26015853881836,
        1.0
      ],
      "name": "Object03.000_4"
    },
    {
      "mesh": 29,
      "name": "Object_37"
    },
    {
      "mesh": 30,
      "name": "Object_38"
    },
    {
      "mesh": 31,
      "name": "Object_39"
    },
    {
      "mesh": 32,
      "name": "Object_40"
    },
    {
      "mesh": 33,
      "name": "Object_41"
    },
    {
      "mesh": 34,
      "name": "Object_42"
    },
    {
      "mesh": 35,
      "name": "Object_43"
    },
    {
      "mesh": 36,
      "name": "Object_44"
    },
    {
      "mesh": 37,
      "name": "Object_45"
    },
    {
      "children": [
        47
      ],
      "matrix": [
        2.7263837479595363,
        0.0,
        -1.9947433970411386,
        0.0,
        0.0,
        3.378190279006958,
        0.0,
        0.0,
        1.9947433970411386,
        0.0,
        2.7263837479595363,
        0.0,
        3.0491013526916504,
        -0.1851000189781189,
        0.4038545489311218,
        1.0
      ],
      "name": "Circle.001_6"
    },
    {
      "mesh": 38,
      "name": "Object_47"
    },
    {
      "children": [
        49
      ],
      "matrix": [
        2.6739908106031884,
        0.0,
        -2.0644473124753784,
        0.0,
        0.0,
        3.378190279006958,
        0.0,
        0.0,
        2.0644473124753784,
        0.0,
        2.6739908106031884,
        0.0,
        2.4128785133361816,
        -0.11458118259906769,
        -5.359632968902588,
        1.0
      ],
      "name": "Circle.002_7"
    },
    {
      "mesh": 39,
      "name": "Object_49"
    }
  ],
  "scene": 0,
  "scenes": [
    {
      "name": "Sketchfab_Scene",
      "nodes": [
        0
      ]
    }
  ]
}
